<svg width="40" height="40" viewBox="0 0 40 40" fill="none" xmlns="http://www.w3.org/2000/svg">
<g id="like_button_pressed">
<circle id="Ellipse 1" cx="20" cy="20" r="19" stroke="white" stroke-width="2"/>
<g id="thumb-up-outline">
<path id="Vector" d="M13 17V29H9V17H13ZM17 29C16.4696 29 15.9609 28.7893 15.5858 28.4142C15.2107 28.0391 15 27.5304 15 27V17C15 16.45 15.22 15.95 15.59 15.59L22.17 9L23.23 10.06C23.5 10.33 23.67 10.7 23.67 11.11L23.64 11.43L22.69 16H29C30.11 16 31 16.9 31 18V20C31 20.26 30.95 20.5 30.86 20.73L27.84 27.78C27.54 28.5 26.83 29 26 29H17Z" fill="white"/>
</g>
</g>
</svg>
