<svg width="40" height="40" viewBox="0 0 40 40" fill="none" xmlns="http://www.w3.org/2000/svg">
<g id="unlike_button_pressed">
<circle id="Ellipse 1" cx="20" cy="20" r="19" transform="matrix(1 0 0 -1 0 40)" stroke="white" stroke-width="2"/>
<g id="thumb-up-outline">
<path id="Vector" d="M13 23V11H9V23H13ZM17 11C16.4696 11 15.9609 11.2107 15.5858 11.5858C15.2107 11.9609 15 12.4696 15 13V23C15 23.55 15.22 24.05 15.59 24.41L22.17 31L23.23 29.94C23.5 29.67 23.67 29.3 23.67 28.89L23.64 28.57L22.69 24H29C30.11 24 31 23.1 31 22V20C31 19.74 30.95 19.5 30.86 19.27L27.84 12.22C27.54 11.5 26.83 11 26 11H17Z" fill="white"/>
</g>
</g>
</svg>
